<svg width="237" height="159" viewBox="0 0 237 159" fill="none" xmlns="http://www.w3.org/2000/svg">
<path d="M234.316 0.734009C234.486 0.893009 234.773 1.50699 234.901 1.74799C235.164 53.574 186.691 97.367 135.941 96.053C124.941 95.769 108.685 94.569 98.8918 89.35C158.59 87.961 196.587 80.241 220.361 18.85C215.679 20.155 211.923 20.914 207.137 21.57C203.988 22.348 191.502 23.372 187.789 23.559C136.832 26.116 110.575 56.889 81.4348 94.994C83.7158 86.888 86.7308 77.972 90.8758 70.654C108.074 40.29 138.169 18.279 172.955 13.434C194.16 10.479 215.471 11.874 234.316 0.734009Z" fill="#D4962B"/>
<path d="M49.6978 0C51.3298 1.387 53.9848 5.59199 55.0468 7.55899C71.0128 37.149 64.8258 73.748 38.6648 95.341C28.7098 103.559 19.9498 107.7 8.14481 112.048C35.8738 89.796 60.3268 68.33 52.8718 29.386C52.1048 26.299 50.8838 22.659 49.9318 19.569C43.7808 29.687 32.0998 39.584 24.5658 49.229C13.8798 62.908 8.86783 74.522 5.35783 91.51C4.23283 96.957 2.8668 103.535 1.1298 108.799C1.0548 108.997 0.979787 109.195 0.903787 109.392C-0.620213 101.18 0.0918206 93.205 0.800821 85.126C2.60682 64.546 12.1568 48.537 25.9338 33.642C30.9878 28.178 36.6318 21.881 41.0058 15.79C44.5808 10.814 47.0668 5.556 49.6978 0Z" fill="#D4962B"/>
<path d="M155.315 105.988C176.164 106.999 187.857 113.698 204.672 125.656C212.152 130.975 219.431 135.42 228.299 137.933C232.019 136.793 232.975 135.982 236.096 133.771C215.217 169.28 168.082 164.01 143.717 135.968C138.237 129.66 134.331 124.908 129.678 117.992C128.398 116.102 127.052 113.342 125.961 111.266C143.163 126.175 158.036 144.541 181.812 150.233C195.797 153.58 205.659 149.578 217.302 142.186C211.53 138.709 205.481 135.234 199.836 131.657C187.307 123.716 177.488 116.326 162.588 113.157C152.353 110.98 144.914 110.773 134.523 110.292C142.432 107.411 146.95 106.441 155.315 105.988Z" fill="#D4962B"/>
<path d="M172.759 48.21L173.197 48.263L173.303 48.661C158.775 54.842 144.405 61.52 129.892 67.78C122.329 71.043 114.068 73.845 106.792 77.31L106.121 77.057C114.596 69.846 159.439 53.397 172.759 48.21Z" fill="#9DCA7D"/>
<path d="M41.7508 47.202C41.8958 52.127 11.0858 96.189 6.33782 103.3C6.09682 96.1 35.9348 56.296 41.7508 47.202Z" fill="#9DCA7D"/>
</svg>
