<svg width="723" height="274" viewBox="0 0 723 274" fill="none" xmlns="http://www.w3.org/2000/svg">
<path d="M394.243 144.697C407.591 142.468 430.416 146.945 442.388 153.198C466.232 165.653 458.698 195.88 439.743 208.613C433.234 212.986 429.47 214.288 421.853 216.314C432.595 236.605 429.187 255.777 452.481 266.564C444.812 275.506 437.303 274.281 427.264 269.895C408.26 261.592 412.317 229.027 401.006 218.81C397.186 217.861 394.523 217.827 390.575 217.612L385.2 232.123C380.943 243.066 374.395 258.219 373.875 269.789C369.685 270.249 364.867 270.87 360.804 269.477C358.887 268.82 357.214 267.549 356.376 265.667C352.705 257.43 379.358 193.247 384.257 181.635C387.823 173.181 392 165.004 395.389 156.473C377.569 160.069 360.992 171.31 363.444 191.669C345.146 190.438 343.456 174.113 353.612 161.831C363.372 150.027 379.583 146.124 394.243 144.697Z" fill="#397535"/>
<path d="M413.447 157.862C425.887 161.041 442.821 168.625 436.019 184.934C432.634 193.049 425.723 197.929 417.751 201.033C413.483 202.542 400.137 205.743 396.833 202.342C398.218 197.316 401.013 190.706 402.928 185.725C406.509 176.407 410.05 167.254 413.447 157.862Z" fill="white"/>
<path d="M240.639 185.964C247.325 188.264 244.486 194.677 246.805 200.001C252.743 213.639 263.072 225.974 258.805 241.761C254.058 259.328 236.186 272.708 217.786 267.87C207.265 265.13 210.221 256.545 212.463 248.714L212.827 249.13C220.982 258.639 231.717 258.096 237.289 246.096C242.024 235.901 235.488 223.37 231.434 213.677C216.789 234.245 201.721 264.767 173.671 267.391C163.582 268.334 155.008 266.694 147.063 260.143C134.168 246.664 139.714 223.22 149.865 209.742C157.271 199.908 168.235 192.376 180.604 190.673C190.165 189.377 203.193 191.339 204.294 203.162C204.905 209.724 202.037 215.891 197.751 220.735C188.319 231.395 173.249 233.674 159.778 234.473C159.54 240.391 159.222 251.654 166.529 253.69C207.749 265.18 217.387 196.186 240.639 185.964Z" fill="#397535"/>
<path d="M180.67 202.059C183.178 201.636 186.066 201.615 187.788 203.766C189.609 212.129 175.667 221.414 169.034 224.13C166.881 224.781 164.192 225.292 161.958 225.779C166.564 214.662 170.191 208.24 180.67 202.059Z" fill="white"/>
<path d="M122.157 142.378C130.171 146.513 125.508 162.894 117.736 166.836C102.881 174.37 85.02 167.066 69.964 163.698C64.193 177.221 60.354 188.971 55.216 202.612C65.126 201.719 74.412 201.587 84.334 201.399C77.952 222.873 69.94 217.99 50.776 217.75C49.752 220.503 48.718 223.902 47.505 226.549C36.824 249.858 38.769 274.712 5.57201 271.547C11.555 259.625 16.44 247.708 21.471 235.362C27.476 220.438 32.827 205.245 38.788 190.294C43.302 178.975 46.007 170.188 52.635 159.775C44.183 158.662 35.174 158.271 28.405 164.51C20.634 171.672 14.033 185.823 13.401 196.272C-3.286 183.46 -4.074 168.415 13.097 155.199C34.36 138.82 62.312 147.229 86.347 150.227C101.711 152.143 109.835 152.03 122.157 142.378Z" fill="#397535"/>
<path d="M580.317 191.184C630.925 186.884 622.565 259.902 571.613 266.985C515.169 268.705 535.1 196.479 580.317 191.184Z" fill="#397535"/>
<path d="M581.445 204.077C607.055 200.874 595.149 246.685 571.353 253.325C555.982 254.211 554.26 242.286 557.888 230.019C561.398 218.153 568.789 207.235 581.445 204.077Z" fill="white"/>
<path d="M499.212 191.195C537.436 187.366 538.571 228.395 519.27 250.191C510.285 260.338 502.422 264.28 489.125 266.47C480.045 266.829 470.928 266.451 463.804 260.321C447.667 246.434 456.127 218.818 468.951 205.787C477.966 196.625 486.912 192.278 499.212 191.195Z" fill="#397535"/>
<path d="M501.522 203.677C521.286 205.42 511.554 231.04 504.61 240.809C499.575 247.893 494.443 252.01 485.786 253.599C461.412 251.379 476.576 206.894 501.522 203.677Z" fill="white"/>
<path d="M297.625 149.186C320.476 146.852 314.362 166.099 309.923 180.242C307.216 188.869 304.296 197.411 301.11 205.878C307.254 199.288 317.336 190.493 326.385 189.734C365.308 186.469 331.867 238.393 333.082 255.887C333.504 261.963 340.737 265.636 344.469 268.598C343.023 274.051 330.729 273.837 326.065 272.54C306.055 266.975 313.822 246.369 318.221 232.623C320.075 227.023 326.401 209.499 326.205 204.377C325.199 202.866 325.865 203.34 324.191 202.838C311.371 205.12 294.908 231.53 290.525 242.516C282.982 261.426 285.591 268.809 261.414 269.406C271.488 238.862 280.701 207.623 290.998 177.084C293.807 168.754 297.369 157.861 297.625 149.186Z" fill="#397535"/>
<path d="M603.798 0.958008C603.968 1.11701 604.255 1.73098 604.383 1.97198C604.646 53.798 556.173 97.591 505.423 96.277C494.423 95.993 478.167 94.793 468.374 89.574C528.072 88.185 566.069 80.465 589.843 19.074C585.161 20.379 581.405 21.138 576.619 21.794C573.47 22.572 560.984 23.596 557.271 23.783C506.314 26.34 480.057 57.113 450.917 95.218C453.198 87.112 456.213 78.196 460.358 70.878C477.556 40.514 507.651 18.503 542.437 13.658C563.642 10.703 584.953 12.098 603.798 0.958008Z" fill="#D4962B"/>
<path d="M642.121 165.677C649.019 165.197 657.879 164.37 661.481 171.893C664.588 178.381 661.098 185.373 658.939 191.61C664.039 192.141 669.411 191.928 674.557 191.856C670.899 205.478 666.524 204.381 654.075 203.472C650.985 210.975 637.071 239.433 637.495 245.462C637.588 246.786 637.96 247.818 639.091 248.607C641.2 250.077 644.648 249.739 646.984 249.124C653.512 247.405 657.488 241.904 660.651 236.36C662.966 239.051 664.17 240.827 666.147 243.794C665.19 245.617 664.164 247.432 663.166 249.235C655.343 260.532 642.066 270.49 627.955 265.482C607.866 258.351 630.369 215.833 635.418 203.436C630.212 202.535 628.393 202.194 623.171 203.264C626.832 191.977 627.073 190.648 638.907 192.589C641.497 187.138 644.653 178.336 645.009 172.309C645.148 169.948 643.82 168.583 642.334 166.924L641.937 166.488L642.121 165.677Z" fill="#397535"/>
<path d="M696.386 188.097C698.482 187.997 701.945 188.035 703.725 189.199C705.298 192.492 702.573 196.319 704.787 201.11C706.437 204.442 709.224 209.31 711.698 212.114C732.324 235.483 722.51 270.027 687.96 266.786C680.811 266.115 675.088 261.045 670.83 254.914C675.694 251.059 677.28 249.397 680.896 244.361C686.321 253.674 698.262 258.505 702.165 244.978C704.466 237.005 696.292 222.229 692.013 215.27C688.486 220.939 684.498 230.916 677.824 233.229C674.079 234.527 671.693 232.905 668.499 231.185C676.763 223.557 680.364 215.027 683.737 204.48C686.154 196.921 687.707 189.796 696.386 188.097Z" fill="#397535"/>
<path d="M92.181 189.168C106.188 187.813 116.653 189.515 117.165 205.915C121.505 201.602 136.318 185.895 142.946 193.872C145.388 196.812 144.23 204.237 143.518 207.904C139.465 207.076 135.859 206.779 131.978 208.464C122.617 212.53 109.964 226.926 105.874 235.906C98.323 258.771 103.423 269.115 75.991 266.979C82.915 246.732 89.308 226.157 95.952 205.808C96.43 204.342 96.103 202.795 96.204 201.419C96.534 196.933 91.441 192.831 90.525 189.816L92.181 189.168Z" fill="#397535"/>
<path d="M419.18 0.223999C420.812 1.611 423.467 5.81599 424.529 7.78299C440.495 37.373 434.308 73.972 408.147 95.565C398.192 103.783 389.432 107.924 377.627 112.272C405.356 90.02 429.809 68.554 422.354 29.61C421.587 26.523 420.366 22.883 419.414 19.793C413.263 29.911 401.582 39.808 394.048 49.453C383.362 63.132 378.35 74.746 374.84 91.734C373.715 97.181 372.349 103.759 370.612 109.023C370.537 109.221 370.462 109.419 370.386 109.616C368.862 101.404 369.574 93.429 370.283 85.35C372.089 64.77 381.639 48.761 395.416 33.866C400.47 28.402 406.114 22.105 410.488 16.014C414.063 11.038 416.549 5.78 419.18 0.223999Z" fill="#D4962B"/>
<path d="M524.797 106.212C545.646 107.223 557.339 113.922 574.154 125.88C581.634 131.199 588.913 135.644 597.781 138.157C601.501 137.017 602.457 136.206 605.578 133.995C584.699 169.504 537.564 164.234 513.199 136.192C507.719 129.884 503.813 125.132 499.16 118.216C497.88 116.326 496.534 113.566 495.443 111.49C512.645 126.399 527.518 144.765 551.294 150.457C565.279 153.804 575.141 149.802 586.784 142.41C581.012 138.933 574.963 135.458 569.318 131.881C556.789 123.94 546.97 116.55 532.07 113.381C521.835 111.204 514.396 110.997 504.005 110.516C511.914 107.635 516.432 106.665 524.797 106.212Z" fill="#D4962B"/>
<path d="M542.241 48.434L542.679 48.487L542.785 48.885C528.257 55.066 513.887 61.744 499.374 68.004C491.811 71.267 483.55 74.069 476.274 77.534L475.603 77.281C484.078 70.07 528.921 53.621 542.241 48.434Z" fill="#9DCA7D"/>
<path d="M411.233 47.426C411.378 52.351 380.568 96.413 375.82 103.524C375.579 96.324 405.417 56.52 411.233 47.426Z" fill="#9DCA7D"/>
</svg>
