<svg version="1.1" id="Layer_1" xmlns="http://www.w3.org/2000/svg" xmlns:xlink="http://www.w3.org/1999/xlink" x="0px" y="0px"
	 width="100%" viewBox="0 0 1024 672" enable-background="new 0 0 1024 672" xml:space="preserve">
<path fill="#000000" opacity="1.000000" stroke="none" 
	d="
M232.541962,185.569611 
	C240.408463,177.296097 243.237656,177.249985 250.670166,186.085571 
	C258.036987,194.843063 261.900452,205.169479 263.351959,216.540527 
	C264.912415,228.765610 262.059937,239.811462 256.258789,250.546524 
	C250.097076,261.948914 245.551422,273.985504 246.028748,287.403229 
	C247.113541,281.971375 250.004745,277.731689 254.068314,274.118103 
	C255.998688,272.401428 256.350677,269.825073 256.851807,267.326508 
	C261.600311,243.651947 278.886780,226.150574 301.272308,222.158859 
	C305.748596,221.360672 310.248016,221.827927 314.735687,221.677246 
	C318.056183,221.565765 319.278564,223.456665 319.094116,226.372391 
	C317.838867,246.217316 308.727020,265.785095 287.683960,273.145660 
	C280.744995,275.572815 273.500366,276.761475 266.338989,278.265167 
	C260.660645,279.457428 256.853394,282.906769 254.307220,287.889008 
	C252.107803,292.192719 252.904953,293.768677 257.706543,294.792755 
	C266.065796,296.575592 273.839203,299.366302 278.315033,307.378265 
	C282.023254,314.016144 282.645538,321.392273 282.065399,328.724335 
	C280.050781,354.184570 275.216248,379.128113 267.145264,403.379913 
	C264.624359,410.954803 261.721802,418.428558 258.512634,425.737213 
	C256.996704,429.189606 257.671417,431.441681 260.322235,433.543793 
	C267.108215,438.924988 274.735840,442.487183 283.342255,443.664673 
	C292.655762,444.938904 299.344177,450.047455 301.058075,457.509277 
	C301.284668,458.495636 301.356628,459.487610 300.371429,460.634003 
	C297.389893,458.730042 294.508270,456.550354 291.332062,454.958374 
	C288.245026,453.411072 284.820129,452.640472 281.007751,452.461121 
	C279.782928,463.021851 283.786072,471.243042 291.992554,478.467621 
	C281.893463,478.375671 274.058746,471.980957 272.833832,463.391327 
	C271.543579,454.343445 266.919342,447.944000 258.702148,444.253693 
	C254.928833,442.559143 252.120880,439.391510 247.982254,437.439941 
	C246.472504,444.204620 247.748886,450.030304 250.897552,455.483154 
	C253.765167,460.449310 257.685486,464.445282 262.390839,467.805664 
	C268.693634,472.306946 271.110504,481.588348 267.328674,488.581512 
	C263.960938,478.726868 256.817413,473.218811 248.111160,467.962616 
	C246.021484,479.966034 245.366364,491.124878 249.273804,502.536774 
	C242.947571,501.342529 239.275970,495.726807 238.702835,487.874359 
	C238.258102,481.781250 237.801971,475.688995 237.290466,468.779938 
	C230.223709,475.998352 219.304398,478.163605 217.378387,490.663269 
	C213.093643,482.272858 215.295578,475.091553 222.449203,469.622375 
	C228.370300,465.095428 233.654480,460.038361 235.128876,452.311890 
	C236.164215,446.886292 236.244690,441.465027 233.539169,435.420929 
	C223.690170,444.117126 209.201035,447.747894 209.116959,464.254822 
	C209.100281,467.529694 206.521561,470.021973 203.842514,471.814575 
	C200.867188,473.805389 197.661697,475.452240 194.499756,477.281647 
	C193.196136,475.058319 194.823593,473.894348 195.693100,472.658081 
	C199.134537,467.764832 200.878403,462.336212 201.558731,456.422119 
	C201.964294,452.896515 200.569397,451.881470 197.354614,452.300720 
	C193.167801,452.846710 189.194382,453.886444 185.836594,456.635345 
	C184.454758,457.766632 183.165497,459.105011 181.218582,459.492188 
	C181.040848,452.154968 187.948257,444.845306 196.380219,443.697632 
	C205.583618,442.445068 213.651688,439.018250 220.407898,432.579620 
	C225.823303,427.418823 226.266006,425.748474 222.830978,419.318054 
	C212.964279,400.847473 208.170364,380.841553 204.767578,360.401886 
	C203.186081,350.902222 201.671982,341.391296 200.074814,331.894318 
	C198.099564,320.149139 202.676819,310.249969 209.448517,301.372955 
	C212.983582,296.738831 218.881561,295.349976 224.628082,294.643738 
	C228.655869,294.148712 229.360199,292.255341 227.320038,288.881866 
	C225.410339,285.724213 222.660324,283.651764 219.268677,282.487122 
	C212.816254,280.271515 206.291473,278.267334 199.830780,276.075012 
	C180.060898,269.366608 164.507172,247.286224 164.563019,226.650543 
	C164.575867,221.904495 166.329636,220.507858 170.747833,220.736771 
	C199.587265,222.230988 213.452728,234.296036 221.016159,257.104309 
	C224.129105,266.491699 225.447861,276.604065 234.360611,282.957550 
	C235.242126,283.585938 235.677505,284.840179 236.631424,286.271240 
	C237.331619,274.679169 234.084412,264.724792 228.116898,255.478104 
	C222.470657,246.729248 217.756058,237.650253 217.660736,226.828857 
	C217.524353,211.346909 222.779175,197.842560 232.541962,185.569611 
M232.876877,355.489960 
	C234.716293,357.402649 236.537079,359.333710 238.399307,361.223938 
	C241.523300,364.394836 245.038589,364.850647 248.729858,362.367615 
	C250.605087,361.106171 253.171005,359.982361 252.968933,357.275757 
	C252.766647,354.566345 249.691833,355.682892 248.214722,354.525330 
	C247.837845,354.230011 247.469757,353.923492 247.035294,353.571625 
	C248.355560,351.435181 250.657120,351.267914 252.592407,350.527252 
	C259.521881,347.875153 260.683075,342.465393 255.587830,337.049286 
	C250.652069,331.802734 244.444290,331.096191 237.673843,331.681000 
	C239.926270,335.675079 236.560211,334.934082 234.542511,335.268707 
	C231.428024,335.785126 227.630035,335.774719 228.122498,340.338745 
	C228.669144,345.405060 229.132339,350.616364 232.876877,355.489960 
z"/>
<path fill="#000000" opacity="1.000000" stroke="none" 
	d="
M650.609802,389.395569 
	C651.638550,391.086914 653.087463,392.168610 653.074158,394.003174 
	C644.069092,397.887299 634.493164,395.201874 629.166626,387.403381 
	C624.937744,381.211853 620.546326,375.130402 616.374817,368.901123 
	C614.717896,366.426880 612.713989,364.922424 609.737305,365.578278 
	C606.363586,366.321655 607.489685,369.224274 607.448853,371.358002 
	C607.327759,377.688599 607.281738,384.025482 607.433838,390.354462 
	C607.513489,393.667297 606.457336,395.082489 602.918762,395.234802 
	C591.039124,395.746155 591.017456,395.865845 591.003479,384.030731 
	C590.978699,363.032562 591.109009,342.033173 590.899292,321.037018 
	C590.849243,316.022308 592.458191,314.222992 597.528137,314.566895 
	C607.644653,315.253082 617.871704,313.562653 627.930420,315.577911 
	C640.745361,318.145325 646.759888,324.411896 648.243774,336.273132 
	C649.732727,348.173981 645.120972,357.111938 634.615417,362.704926 
	C634.033630,363.014618 633.485107,363.386566 632.201599,364.167053 
	C638.327271,372.564850 644.362000,380.837921 650.609802,389.395569 
M630.505310,344.785645 
	C633.031982,336.278778 630.888550,330.882751 623.818604,328.755829 
	C619.691284,327.514191 615.385376,327.152924 611.036560,327.312531 
	C608.556824,327.403534 607.380798,328.417053 607.396851,330.916351 
	C607.434143,336.717987 607.409668,342.520020 607.429260,348.321808 
	C607.434021,349.718903 607.794128,350.882507 609.300964,351.479431 
	C614.553345,353.560364 626.563477,350.137299 630.505310,344.785645 
z"/>
<path fill="#000000" opacity="1.000000" stroke="none" 
	d="
M527.706177,339.999939 
	C527.710022,332.175659 527.798889,324.849976 527.679810,317.527679 
	C527.625549,314.192108 528.806091,312.645660 532.310974,312.716522 
	C545.164856,312.976532 543.156433,311.276947 543.334045,323.467834 
	C543.416199,329.104736 543.348083,334.743866 543.348083,341.303253 
	C548.966736,337.668671 554.203003,335.285126 560.484436,335.560394 
	C570.118591,335.982666 576.498962,340.563843 579.248291,349.740753 
	C581.292847,356.565063 581.073547,363.545746 581.032104,370.531586 
	C580.993591,377.023315 580.921570,383.516418 581.012146,390.006836 
	C581.065430,393.826050 579.442139,395.272461 575.593628,395.226837 
	C563.106506,395.078674 564.915649,396.040131 564.812805,384.603424 
	C564.752930,377.945496 564.812561,371.286560 564.793884,364.628174 
	C564.787354,362.299744 564.670044,359.999512 564.027405,357.712097 
	C562.360229,351.778564 558.893311,348.985657 553.799622,349.677124 
	C547.985168,350.466431 543.381897,355.135437 543.355164,360.421143 
	C543.306274,370.075684 543.101624,379.738525 543.429260,389.382019 
	C543.591064,394.143677 541.770691,395.340088 537.349365,395.273865 
	C527.711731,395.129456 527.705078,395.316956 527.703613,385.444702 
	C527.701416,370.463135 527.705078,355.481537 527.706177,339.999939 
z"/>
<path fill="#000000" opacity="1.000000" stroke="none" 
	d="
M358.974274,314.624115 
	C359.803253,314.624390 360.136444,314.624268 360.469604,314.624603 
	C370.775696,314.635162 371.085693,315.058594 370.170349,325.277344 
	C369.903931,328.251678 368.591370,329.328308 365.731903,329.296661 
	C358.902985,329.221069 352.068451,329.435455 345.244293,329.243134 
	C341.655701,329.142029 340.140320,330.224121 340.247681,334.042542 
	C340.677460,349.330414 338.044189,346.546844 352.704315,346.867523 
	C356.700623,346.955017 360.700348,346.964172 364.697388,346.916229 
	C367.609741,346.881317 368.783478,348.247833 369.040222,351.119629 
	C369.946472,361.258301 369.367310,361.979187 359.320526,361.978455 
	C355.322540,361.978180 351.324585,361.970795 347.326599,361.978210 
	C340.316254,361.991211 340.314240,361.994934 340.302185,368.778778 
	C340.289459,375.941833 340.163879,383.107422 340.319672,390.266846 
	C340.399048,393.913147 339.013550,395.315552 335.345581,395.255310 
	C320.156952,395.005798 322.818298,396.831146 322.711334,383.034424 
	C322.549866,362.212830 322.782959,341.387909 322.577454,320.567078 
	C322.532623,316.025360 323.876312,314.433228 328.495972,314.562805 
	C338.482849,314.842957 348.483459,314.633270 358.974274,314.624115 
z"/>
<path fill="#000000" opacity="1.000000" stroke="none" 
	d="
M701.172974,340.687378 
	C718.008911,354.854767 717.204590,380.901215 699.876099,392.068298 
	C685.481140,401.344879 658.864807,397.239258 654.586426,371.783356 
	C651.363281,352.605988 663.302734,338.964813 675.000122,336.489532 
	C684.042603,334.576019 692.893127,334.970123 701.172974,340.687378 
M696.413879,370.669067 
	C696.935547,366.678314 696.696655,362.755188 695.591980,358.862854 
	C693.341858,350.934937 685.244019,347.217133 677.871399,350.952301 
	C672.013245,353.920166 670.980164,359.267487 670.950623,365.257080 
	C670.919006,371.648651 671.270691,377.714752 677.908691,380.998016 
	C685.697937,384.850616 693.134583,380.904846 696.413879,370.669067 
z"/>
<path fill="#000000" opacity="1.000000" stroke="none" 
	d="
M720.764282,356.085693 
	C727.608521,333.412933 753.217346,330.969910 766.723511,341.215149 
	C779.131409,350.627228 781.984375,371.515381 772.469666,384.911591 
	C763.618652,397.373413 745.159241,400.289978 731.771851,391.721436 
	C722.912720,386.051178 716.112427,369.176697 720.764282,356.085693 
M736.140503,364.663361 
	C736.205017,366.653076 736.119812,368.661163 736.361389,370.629120 
	C737.176819,377.272125 741.851929,381.726318 748.118469,381.981628 
	C755.972229,382.301636 759.744263,378.427887 761.325623,368.418427 
	C762.694275,359.754852 759.012695,352.105103 752.643311,350.378235 
	C743.784302,347.976440 737.008179,353.482910 736.140503,364.663361 
z"/>
<path fill="#000000" opacity="1.000000" stroke="none" 
	d="
M449.229462,336.163757 
	C464.140594,340.191254 470.266083,353.751923 469.294983,368.257080 
	C469.075256,371.539032 466.774475,371.246643 464.629089,371.254791 
	C455.310730,371.290070 445.992004,371.255341 436.673950,371.322327 
	C434.906555,371.335022 433.033325,370.846191 431.378662,371.905640 
	C432.102142,378.667938 436.819794,382.270935 444.949432,382.889862 
	C451.588379,383.395294 457.622467,381.080414 463.876434,379.013519 
	C465.766815,383.310425 464.998230,387.259888 464.565613,391.150940 
	C464.345642,393.129120 462.557220,393.636139 460.963196,394.149292 
	C453.377777,396.591187 445.552063,397.190491 437.777161,395.917511 
	C423.572327,393.591797 414.684814,382.399963 414.075684,366.809998 
	C413.490417,351.831604 421.812378,339.882721 435.441345,336.297180 
	C439.848877,335.137604 444.346832,335.510956 449.229462,336.163757 
M432.590302,359.396851 
	C438.227448,359.474213 443.865051,359.527252 449.501495,359.639648 
	C452.166962,359.692810 453.080963,358.477356 452.567932,355.912018 
	C451.647339,351.308685 446.250336,347.721863 441.126343,348.373840 
	C435.206909,349.126984 431.424744,353.500244 432.590302,359.396851 
z"/>
<path fill="#000000" opacity="1.000000" stroke="none" 
	d="
M822.720581,353.115997 
	C824.443848,341.552582 830.810242,335.871552 841.911316,335.665405 
	C847.565857,335.560364 853.127869,335.789398 858.716492,337.272461 
	C863.083069,338.431305 864.967102,340.414551 864.372009,344.863159 
	C864.088928,346.979004 864.680847,349.184448 863.799133,351.333466 
	C861.663879,352.355469 859.975830,350.874908 858.238525,350.190002 
	C853.313049,348.248413 848.282532,347.522339 843.072021,348.482208 
	C840.847412,348.891998 838.856201,349.917358 838.464600,352.417053 
	C838.029236,355.196014 840.164734,356.196869 842.231995,356.937653 
	C846.143127,358.339172 850.111389,359.581604 854.057312,360.885681 
	C864.960144,364.489014 869.182007,369.900574 868.210815,379.032623 
	C867.220154,388.347809 860.296692,395.138672 850.241638,396.147064 
	C843.085083,396.864716 836.014282,396.143616 829.000366,394.220001 
	C824.369324,392.949890 822.131104,390.662445 822.861572,385.756622 
	C823.172974,383.665039 823.156250,381.524628 823.326660,378.798035 
	C828.390259,380.338074 832.882812,381.824860 837.444580,383.055237 
	C841.374695,384.115265 845.351868,384.068604 849.185425,382.479248 
	C851.142761,381.667755 852.606934,380.360321 852.636536,378.047241 
	C852.664612,375.854431 851.108521,374.680389 849.381226,374.064606 
	C844.219421,372.224365 838.978821,370.606201 833.776062,368.879883 
	C826.406128,366.434540 822.673828,361.345612 822.720581,353.115997 
z"/>
<path fill="#000000" opacity="1.000000" stroke="none" 
	d="
M492.205078,350.127808 
	C490.065247,353.869507 491.813843,355.780518 494.900299,356.888702 
	C498.970154,358.349945 503.113159,359.606293 507.211975,360.988434 
	C517.332214,364.401123 521.887146,369.909637 521.205078,377.867157 
	C520.353760,387.797180 513.464722,395.008850 503.201385,396.140442 
	C495.168243,397.026154 487.268829,395.932800 479.586121,393.320953 
	C477.272186,392.534302 475.809784,391.247040 475.892822,388.676605 
	C475.993835,385.549957 475.385376,382.382141 476.280121,379.311005 
	C478.418549,378.177155 479.851410,379.819122 481.436249,380.440338 
	C486.918854,382.589386 492.499603,384.249847 498.449005,383.552551 
	C501.631439,383.179535 505.062317,382.373047 505.519287,378.464172 
	C505.955078,374.736664 502.624786,374.002106 499.998993,373.101196 
	C495.594543,371.589966 491.078217,370.402161 486.684998,368.861511 
	C479.006195,366.168640 475.622925,361.904968 475.533325,354.668060 
	C475.440918,347.205505 478.448120,341.132568 485.365692,338.067291 
	C495.199615,333.709747 505.222107,335.224976 515.087280,338.510681 
	C516.280396,338.908081 517.215576,339.602997 517.222351,340.951569 
	C517.240356,344.537811 517.896912,348.175903 516.543823,352.203094 
	C508.612244,349.236511 500.832886,345.701447 492.205078,350.127808 
z"/>
<path fill="#000000" opacity="1.000000" stroke="none" 
	d="
M811.046265,336.732483 
	C817.983093,335.837677 817.025330,340.299438 817.301697,344.339752 
	C817.628784,349.122131 815.568726,350.367889 811.159180,350.234711 
	C804.423645,350.031250 804.406860,350.247803 804.403137,357.118561 
	C804.399963,362.943970 804.289795,368.773621 804.473206,374.593628 
	C804.662903,380.614136 806.721130,382.486725 812.628235,381.464722 
	C816.178711,380.850433 816.987976,382.059875 817.154968,385.218414 
	C817.709900,395.710907 817.107727,396.428802 806.748474,396.334076 
	C795.608582,396.232178 789.638000,390.540649 788.923340,378.621002 
	C788.465820,370.989929 788.610413,363.314423 788.712585,355.661896 
	C788.759094,352.180420 788.307312,349.710449 783.944946,350.130463 
	C780.900269,350.423615 779.830322,348.586517 779.926697,345.786377 
	C780.079407,341.351074 778.457397,335.761047 786.287170,336.535187 
	C787.571106,336.662170 788.372620,335.613617 788.528198,334.298065 
	C788.625549,333.474518 788.630554,332.638977 788.655701,331.808197 
	C788.958496,321.772614 791.506958,319.846497 801.517761,321.860901 
	C803.554016,322.270599 804.357117,323.309875 804.360901,325.240814 
	C804.364441,327.071442 804.609558,328.931152 804.368469,330.727020 
	C803.704468,335.671387 805.900635,337.438843 811.046265,336.732483 
z"/>
<path fill="#000000" opacity="1.000000" stroke="none" 
	d="
M376.928711,354.002289 
	C376.931152,350.836792 376.932709,348.170807 376.935669,345.504822 
	C376.945435,336.692474 376.945618,336.692474 385.620819,336.733673 
	C390.672150,336.757660 390.672150,336.757660 393.229889,341.310577 
	C398.420471,337.770294 403.699707,334.115479 410.948151,336.192841 
	C411.746124,340.014526 411.596741,344.114716 411.485626,348.217926 
	C411.422058,350.564514 409.769104,350.831268 408.037628,350.880524 
	C404.604980,350.978210 401.571625,352.019287 398.711853,353.974640 
	C394.965302,356.536255 393.123230,359.706909 393.270569,364.427124 
	C393.540771,373.082886 393.234528,381.755188 393.374725,390.417267 
	C393.428864,393.762238 392.357574,395.121399 388.834167,395.250580 
	C376.948700,395.686523 376.964722,395.804626 376.968445,383.994324 
	C376.971527,374.163483 376.942963,364.332642 376.928711,354.002289 
z"/>
</svg>